<svg enable-background="new 0 0 32 32" height="512" viewBox="0 0 32 32" width="512" xmlns="http://www.w3.org/2000/svg"><path d="m26 32h-20c-3.314 0-6-2.686-6-6v-20c0-3.314 2.686-6 6-6h20c3.314 0 6 2.686 6 6v20c0 3.314-2.686 6-6 6z" fill="#f5e6fe"/><g fill="#d9a4fc"><path d="m23.5 16.667c-.276 0-.5-.224-.5-.5 0-1.919-.744-3.719-2.096-5.071-1.35-1.351-3.152-2.096-5.071-2.096-.276 0-.5-.224-.5-.5s.224-.5.5-.5c2.186 0 4.238.848 5.778 2.389 1.541 1.541 2.389 3.593 2.389 5.778 0 .276-.224.5-.5.5z"/><path d="m21.309 16.667c-.276 0-.5-.224-.5-.5 0-1.333-.517-2.583-1.455-3.521s-2.188-1.455-3.521-1.455c-.276 0-.5-.224-.5-.5s.224-.5.5-.5c1.6 0 3.101.621 4.228 1.748s1.748 2.629 1.748 4.228c0 .276-.224.5-.5.5z"/><path d="m19.119 16.667c-.001 0-.002 0-.003 0-.276-.002-.499-.227-.497-.503.005-.739-.285-1.438-.814-1.968-.53-.53-1.209-.804-1.968-.814-.277.031-.501-.22-.503-.497-.002-.276.221-.502.497-.503 1.036.008 1.961.387 2.682 1.107s1.114 1.673 1.107 2.681c-.003.275-.226.497-.501.497z"/></g><path d="m16.936 24.002c-.869 0-1.761-.231-2.474-.454-1.401-.437-2.695-1.222-3.742-2.269-1.408-1.408-2.369-3.288-2.635-5.159-.12-.846-.189-1.928.344-2.798.501-.815 1.408-1.322 2.366-1.322.168 0 .329.018.484.044.006.001.011.002.017.003.561.101 1.007.578 1.085 1.165l.354 2.644c.079.592-.235 1.178-.764 1.424-.032.015-.064.029-.097.043.288.609.677 1.16 1.161 1.644.483.483 1.035.872 1.643 1.16.014-.033.028-.065.043-.096.246-.53.828-.845 1.424-.765l2.644.354c.589.078 1.068.527 1.167 1.091.001.008.003.016.003.024.024.151.041.308.041.47 0 .905-.441 1.754-1.181 2.273-.552.386-1.211.524-1.883.524z" fill="#be63f9"/></svg>