<svg id="Layer_1" data-name="Layer 1" xmlns="http://www.w3.org/2000/svg" viewBox="0 0 200 200"><defs><style>.cls-1{fill:#fff;}.cls-2{isolation:isolate;}.cls-3{fill:#333;}</style></defs><title>logo-df-white-bg</title><rect class="cls-1" width="200" height="200"/><g class="cls-2"><path class="cls-3" d="M36.25,136.3V63.7H24v-3H61.09q12.31,0,21.07,3.49T96.78,77.85a43.49,43.49,0,0,1,5.86,22.06,40.3,40.3,0,0,1-6.45,22.5q-6.45,9.9-14.85,13.39t-20.48,3.49H24v-3Zm14-72.6v72.6H60.39a48.22,48.22,0,0,0,13.1-1.47,15,15,0,0,0,8.38-6.38A30.58,30.58,0,0,0,86.35,116a134.1,134.1,0,0,0,1.17-19.75q0-14.64-3.72-21.85t-9.11-8.94A47.25,47.25,0,0,0,60.63,63.7Z" transform="translate(-0.39 0)"/></g><g class="cls-2"><path class="cls-3" d="M121.81,136.3V63.7H109.44v-3h66.33l1,23.73h-2.64q0-1.11-2-8t-6-9.82q-4-2.86-13.33-2.87H135.69v34h3.23a37.1,37.1,0,0,0,8.14-.7,8.84,8.84,0,0,0,5.19-3.92q2.19-3.23,2.66-10.14h3v33.28h-3q-.47-7.5-2.37-10.87a7.92,7.92,0,0,0-4.83-4.13,37.57,37.57,0,0,0-8.79-.76h-3.23v35.8h13.83v3H109.44v-3Z" transform="translate(-0.39 0)"/></g></svg>